<?xml version="1.0" encoding="utf-8"?>
<svg version="1.1" id="pileicon" xmlns="http://www.w3.org/2000/svg" xmlns:xlink="http://www.w3.org/1999/xlink" x="0px" y="0px"
	 viewBox="0 0 96 96" style="enable-background:new 0 0 96 96;" xml:space="preserve">
<style type="text/css">
	.st0{fill:#BEBEBE;}
</style>
<g>
	<path class="st0" d="M52.7,52.2c-0.5,0.2-1.3,0.6-1.8,0.9l-2.1,1c-0.5,0.2-1.3,0.2-1.8,0l-2.1-1c-0.5-0.2-1.3-0.6-1.8-0.9l-25-11.9
		c-0.5-0.2-1.3-0.2-1.8,0L1,47.3c-0.5,0.2-0.5,0.6,0,0.8l46.1,22c0.5,0.2,1.3,0.2,1.8,0L95,47.7c0.5-0.2,0.5-0.6,0-0.8l-15.4-6.8
		c-0.5-0.2-1.3-0.2-1.8,0L52.7,52.2z"/>
</g>
<g>
	<path class="st0" d="M48.8,0.4c-0.5-0.2-1.3-0.2-1.8,0L1,21.2c-0.5,0.2-0.5,0.6,0,0.8L47,44c0.5,0.2,1.3,0.2,1.8,0L95,21.6
		c0.5-0.2,0.5-0.6,0-0.8L48.8,0.4z"/>
</g>
<g>
	<path class="st0" d="M52.7,77.7c-0.5,0.2-1.3,0.6-1.8,0.9l-2.1,1c-0.5,0.2-1.3,0.2-1.8,0l-2.1-1c-0.5-0.2-1.3-0.6-1.8-0.9l-25-11.9
		c-0.5-0.2-1.3-0.2-1.8,0L1,72.8c-0.5,0.2-0.5,0.6,0,0.8l46.1,22c0.5,0.2,1.3,0.2,1.8,0L95,73.2c0.5-0.2,0.5-0.6,0-0.8l-15.4-6.8
		c-0.5-0.2-1.3-0.2-1.8,0L52.7,77.7z"/>
</g>
</svg>
