<svg id="b" xmlns="http://www.w3.org/2000/svg" viewBox="0 0 96 96"><defs><style>.e{fill:#727272}.f{fill:#a5a5a5}.g{fill:#606060}.h{fill:#5f8983}.i{fill:#515151}.j{fill:#7eaaa5}.k{fill:#565656}.l{fill:#6b6b6b}</style></defs><g id="c"><polyline class="g" points="0 9.04 58.2 0 95.93 13.9 37.77 22.9 0 9.04"/></g><g id="d"><polygon class="f" points="0 81.81 37.77 96 37.77 75.63 0 61.77 0 81.81"/><polygon class="l" points="37.85 75.51 96 66.68 96 86.74 37.77 96 37.85 75.51"/><polygon class="i" points="32.92 56.7 58.2 52.82 96 66.68 72.76 70.25 32.92 56.7"/><polygon class="e" points="37.77 75.63 37.77 96 79.98 89.29 79.98 69.14 37.77 75.63"/><polygon class="k" points="79.98 69.14 42.21 55.28 0 61.77 37.77 75.63 79.98 69.14"/><polygon class="j" points="0 9.04 37.77 22.9 37.77 63.33 0 49.76 0 9.04"/><polygon class="h" points="37.77 22.9 95.93 13.9 95.93 54.33 37.77 63.33 37.77 22.9"/></g></svg>
