<?xml version="1.0" encoding="utf-8"?>
<!DOCTYPE svg PUBLIC "-//W3C//DTD SVG 1.1//EN" "http://www.w3.org/Graphics/SVG/1.1/DTD/svg11.dtd">
<svg version="1.1" id="pileicon" xmlns="http://www.w3.org/2000/svg" xmlns:xlink="http://www.w3.org/1999/xlink" x="0px" y="0px"
	 width="96px" height="96px" viewBox="-591.5 448.5 96 96" xml:space="preserve">
<g>
	<path fill="#4D4D4D" d="M-538.679,500.664c-0.495,0.239-1.306,0.632-1.801,0.871l-2.094,1.014
		c-0.495,0.239-1.307,0.241-1.803,0.005l-2.1-1.004c-0.496-0.236-1.309-0.625-1.805-0.861l-24.982-11.935
		c-0.496-0.236-1.312-0.246-1.814-0.02l-15.437,6.958c-0.501,0.227-0.505,0.605-0.009,0.842l46.122,22.033
		c0.496,0.236,1.308,0.234,1.803-0.005l46.199-22.356c0.495-0.239,0.489-0.618-0.014-0.841l-15.433-6.838
		c-0.502-0.223-1.319-0.209-1.814,0.03L-538.679,500.664z"/>
</g>
<g>
	<path fill="#4D4D4D" d="M-542.586,448.905c-0.502-0.223-1.324-0.221-1.826,0.006l-46.103,20.781
		c-0.501,0.227-0.505,0.605-0.009,0.842l46.122,22.033c0.496,0.236,1.308,0.234,1.803-0.005l46.199-22.356
		c0.495-0.239,0.489-0.618-0.014-0.841L-542.586,448.905z"/>
</g>
<g>
	<path fill="#4D4D4D" d="M-538.679,526.166c-0.495,0.239-1.306,0.632-1.801,0.871l-2.094,1.014
		c-0.495,0.239-1.307,0.241-1.803,0.005l-2.1-1.004c-0.496-0.236-1.309-0.625-1.805-0.861l-24.982-11.935
		c-0.496-0.236-1.312-0.246-1.814-0.02l-15.437,6.958c-0.501,0.227-0.505,0.605-0.009,0.842l46.122,22.033
		c0.496,0.236,1.308,0.234,1.803-0.005l46.199-22.356c0.495-0.239,0.489-0.618-0.014-0.841l-15.433-6.838
		c-0.502-0.223-1.319-0.209-1.814,0.03L-538.679,526.166z"/>
</g>
</svg>
